<?xml version="1.0" encoding="UTF-8"?>
<svg version="1.1" xmlns="http://www.w3.org/2000/svg" width="512" height="512">
<path d="M0 0 C5.33920057 0.72215351 9.30975731 3.3793459 13.8984375 6.1015625 C14.91010986 6.68768311 15.92178223 7.27380371 16.96411133 7.87768555 C20.15790867 9.7316796 23.34100891 11.60313469 26.5234375 13.4765625 C28.4772425 14.61695189 30.43165446 15.75630212 32.38671875 16.89453125 C35.32176016 18.60421139 38.25587269 20.31537484 41.18701172 22.03173828 C48.93545705 26.56714001 56.72253786 31.03233041 64.5234375 35.4765625 C74.19834534 40.98903109 83.83626113 46.56080949 93.4453125 52.1875 C101.10917724 56.66822515 108.81029585 61.08150474 116.5234375 65.4765625 C126.24468256 71.01642183 135.93238618 76.61031182 145.59033203 82.26000977 C152.84556287 86.50273997 160.1176902 90.71528586 167.3984375 94.9140625 C168.99401489 95.83723267 168.99401489 95.83723267 170.62182617 96.77905273 C175.73102527 99.73174421 180.84825514 102.66729984 185.99743652 105.54963684 C188.40887521 106.9008885 190.81513085 108.26122202 193.2210083 109.62234497 C194.92147346 110.57935247 196.62936834 111.52312021 198.33740234 112.46655273 C199.36687988 113.04993408 200.39635742 113.63331543 201.45703125 114.234375 C202.36509521 114.7411377 203.27315918 115.24790039 204.20874023 115.77001953 C206.92838666 117.77511694 208.0013629 119.47011034 209.5234375 122.4765625 C209.89603299 125.0083397 209.89603299 125.0083397 209.89258099 127.74577808 C209.89855413 128.79378521 209.90452728 129.84179233 209.91068143 130.92155725 C209.9019429 132.06649563 209.89320438 133.21143402 209.88420105 134.3910675 C209.88676432 135.61223823 209.8893276 136.83340896 209.89196855 138.09158486 C209.89605593 141.47815138 209.88667954 144.8641979 209.87163436 148.25070155 C209.85868006 151.90368106 209.86306303 155.55664448 209.86534119 159.2096405 C209.86691431 165.53766498 209.85750109 171.86559666 209.84062767 178.19359779 C209.81624746 187.34281189 209.8084334 196.49198111 209.8046637 205.64122417 C209.79809768 220.48520678 209.77813242 235.32913994 209.74975586 250.1730957 C209.72221919 264.59268954 209.70098369 279.01226994 209.68823242 293.43188477 C209.68705017 294.76510136 209.68705017 294.76510136 209.68584403 296.12525163 C209.68192892 300.58415161 209.67813779 305.04305168 209.67440832 309.50195181 C209.64330772 346.49352503 209.58964222 383.48503668 209.5234375 420.4765625 C199.6234375 420.4765625 189.7234375 420.4765625 179.5234375 420.4765625 C179.48476563 413.77666016 179.48476563 413.77666016 179.4453125 406.94140625 C179.41360986 403.36717407 179.37795825 399.79302953 179.33964539 396.21886444 C179.3003558 392.45293881 179.26793345 388.68724769 179.25244141 384.92114258 C179.23723393 381.28984375 179.20271766 377.65918334 179.15512848 374.02816963 C179.14035647 372.64684173 179.13239889 371.26542266 179.13155365 369.88401604 C179.31322623 359.37847465 179.31322623 359.37847465 174.5234375 350.4765625 C168.14631503 346.79123248 162.02736129 347.05150067 154.79858398 347.08837891 C153.52948181 347.08312195 152.26037964 347.07786499 150.95281982 347.07244873 C147.48797763 347.05882803 144.02340484 347.06405147 140.55855823 347.07358599 C136.92453484 347.08120829 133.29053374 347.07413001 129.6565094 347.06942749 C123.55620198 347.06397809 117.45600372 347.07114078 111.35571289 347.08544922 C104.3113676 347.10178156 97.26728273 347.09647983 90.22294372 347.07997 C84.16413762 347.06634055 78.10540974 347.06444236 72.04659325 347.07228601 C68.43252772 347.07695359 64.81858448 347.07761254 61.2045269 347.06767654 C57.17582737 347.05737303 53.1475745 347.07166798 49.11889648 347.08837891 C47.92651871 347.08230621 46.73414093 347.07623352 45.50563049 347.06997681 C37.53717798 347.04024625 37.53717798 347.04024625 30.5234375 350.4765625 C26.99986725 354.65770723 26.02037863 357.61350924 25.97753906 363.03271484 C25.95782043 364.31358978 25.93810181 365.59446472 25.91778564 366.91415405 C25.91612286 368.29693559 25.9148918 369.67971771 25.9140625 371.0625 C25.89906931 372.4888394 25.88233977 373.9151615 25.86395264 375.34146118 C25.82039376 379.07982207 25.80030586 382.81794881 25.78521729 386.55651855 C25.76215099 391.05050252 25.70973465 395.54422978 25.66227722 400.03800964 C25.59359458 406.85092735 25.56204064 413.66310903 25.5234375 420.4765625 C15.6234375 420.4765625 5.7234375 420.4765625 -4.4765625 420.4765625 C-4.52214361 367.2598808 -4.55755904 314.04320156 -4.57869316 260.82650418 C-4.58119471 254.55018895 -4.58378334 248.27387376 -4.58642578 241.99755859 C-4.5869504 240.74800624 -4.58747502 239.49845389 -4.58801554 238.21103631 C-4.59672881 217.95275405 -4.61250384 197.69448309 -4.63086809 177.43620755 C-4.64954153 156.66431065 -4.6606738 135.89241969 -4.66473949 115.12051475 C-4.66748987 102.29316297 -4.67619061 89.46584311 -4.69239543 76.63850115 C-4.7029308 67.85386136 -4.70617099 59.06923818 -4.70356525 50.28459252 C-4.70227856 45.20900497 -4.70431271 40.13347338 -4.71497345 35.05789566 C-4.72464817 30.41813405 -4.72523537 25.77846649 -4.71836029 21.13870071 C-4.71750957 19.45361382 -4.72009543 17.76852126 -4.72632886 16.08344568 C-4.73426958 13.80575255 -4.73008166 11.52840603 -4.72265816 9.25071907 C-4.7234176 7.98169373 -4.72417704 6.71266838 -4.72495949 5.40518773 C-4.40773639 1.66509588 -3.70516476 0.71298123 0 0 Z M35.5234375 171.4765625 C35.0778277 174.62316182 35.19931753 177.80198743 35.2109375 180.9765625 C35.19482422 181.85699219 35.17871094 182.73742187 35.16210938 183.64453125 C35.16146484 184.48628906 35.16082031 185.32804688 35.16015625 186.1953125 C35.15717529 186.96810547 35.15419434 187.74089844 35.15112305 188.53710938 C35.27398682 189.17712891 35.39685059 189.81714844 35.5234375 190.4765625 C38.82632086 192.67848474 39.79806477 192.71616218 43.62890625 192.671875 C44.95764771 192.66438232 44.95764771 192.66438232 46.31323242 192.65673828 C47.4344751 192.63853027 48.55571777 192.62032227 49.7109375 192.6015625 C53.2790625 192.5603125 56.8471875 192.5190625 60.5234375 192.4765625 C60.5234375 184.8865625 60.5234375 177.2965625 60.5234375 169.4765625 C56.7696875 169.4353125 53.0159375 169.3940625 49.1484375 169.3515625 C47.96588379 169.33335449 46.78333008 169.31514648 45.56494141 169.29638672 C44.63601074 169.2913916 43.70708008 169.28639648 42.75 169.28125 C41.79689941 169.27077637 40.84379883 169.26030273 39.86181641 169.24951172 C37.3311162 169.24524383 37.3311162 169.24524383 35.5234375 171.4765625 Z M71.5234375 169.4765625 C71.5234375 177.0665625 71.5234375 184.6565625 71.5234375 192.4765625 C79.7734375 192.4765625 88.0234375 192.4765625 96.5234375 192.4765625 C96.5234375 184.8865625 96.5234375 177.2965625 96.5234375 169.4765625 C88.2734375 169.4765625 80.0234375 169.4765625 71.5234375 169.4765625 Z M107.5234375 169.4765625 C107.5234375 177.0665625 107.5234375 184.6565625 107.5234375 192.4765625 C116.1034375 192.4765625 124.6834375 192.4765625 133.5234375 192.4765625 C133.5234375 184.8865625 133.5234375 177.2965625 133.5234375 169.4765625 C124.9434375 169.4765625 116.3634375 169.4765625 107.5234375 169.4765625 Z M144.5234375 169.4765625 C144.5234375 177.0665625 144.5234375 184.6565625 144.5234375 192.4765625 C148.0915625 192.5384375 151.6596875 192.6003125 155.3359375 192.6640625 C157.01780151 192.70503052 157.01780151 192.70503052 158.73364258 192.74682617 C159.61947021 192.75431885 160.50529785 192.76181152 161.41796875 192.76953125 C162.77692261 192.79309692 162.77692261 192.79309692 164.16333008 192.81713867 C166.56241445 192.65429272 166.56241445 192.65429272 168.31762695 191.20239258 C170.44125734 188.1629224 169.95210892 184.54869347 169.8984375 180.9765625 C169.91003906 180.20441406 169.92164063 179.43226563 169.93359375 178.63671875 C169.98726124 174.45863379 169.98726124 174.45863379 168.31762695 170.75073242 C165.90732447 169.03902081 164.35667926 169.13263345 161.41796875 169.18359375 C160.08922729 169.19483276 160.08922729 169.19483276 158.73364258 169.20629883 C157.05177856 169.24726685 157.05177856 169.24726685 155.3359375 169.2890625 C149.98375 169.381875 149.98375 169.381875 144.5234375 169.4765625 Z M35.5234375 256.4765625 C35.21397844 258.47678219 35.21397844 258.47678219 35.2578125 260.7578125 C35.25523437 261.59957031 35.25265625 262.44132812 35.25 263.30859375 C35.25773437 264.18902344 35.26546875 265.06945312 35.2734375 265.9765625 C35.26570313 266.85699219 35.25796875 267.73742187 35.25 268.64453125 C35.25257813 269.48628906 35.25515625 270.32804687 35.2578125 271.1953125 C35.26006836 271.96810547 35.26232422 272.74089844 35.26464844 273.53710938 C35.35519377 275.71323311 35.35519377 275.71323311 37.5234375 277.4765625 C39.94941701 277.75443918 39.94941701 277.75443918 42.75 277.671875 C43.67893066 277.66687988 44.60786133 277.66188477 45.56494141 277.65673828 C46.74749512 277.63853027 47.93004883 277.62032227 49.1484375 277.6015625 C54.7790625 277.5396875 54.7790625 277.5396875 60.5234375 277.4765625 C60.5234375 269.8865625 60.5234375 262.2965625 60.5234375 254.4765625 C56.7696875 254.4353125 53.0159375 254.3940625 49.1484375 254.3515625 C47.96588379 254.33335449 46.78333008 254.31514648 45.56494141 254.29638672 C44.63601074 254.2913916 43.70708008 254.28639648 42.75 254.28125 C41.79689941 254.27077637 40.84379883 254.26030273 39.86181641 254.24951172 C37.3311162 254.24524383 37.3311162 254.24524383 35.5234375 256.4765625 Z M71.5234375 254.4765625 C71.5234375 262.0665625 71.5234375 269.6565625 71.5234375 277.4765625 C79.7734375 277.4765625 88.0234375 277.4765625 96.5234375 277.4765625 C96.5234375 269.8865625 96.5234375 262.2965625 96.5234375 254.4765625 C88.2734375 254.4765625 80.0234375 254.4765625 71.5234375 254.4765625 Z M107.5234375 254.4765625 C107.5234375 262.0665625 107.5234375 269.6565625 107.5234375 277.4765625 C116.1034375 277.4765625 124.6834375 277.4765625 133.5234375 277.4765625 C133.5234375 269.8865625 133.5234375 262.2965625 133.5234375 254.4765625 C124.9434375 254.4765625 116.3634375 254.4765625 107.5234375 254.4765625 Z M144.5234375 254.4765625 C144.5234375 262.0665625 144.5234375 269.6565625 144.5234375 277.4765625 C148.0915625 277.5384375 151.6596875 277.6003125 155.3359375 277.6640625 C157.01780151 277.70503052 157.01780151 277.70503052 158.73364258 277.74682617 C159.61947021 277.75431885 160.50529785 277.76181152 161.41796875 277.76953125 C162.77692261 277.79309692 162.77692261 277.79309692 164.16333008 277.81713867 C166.56241445 277.65429272 166.56241445 277.65429272 168.31762695 276.20239258 C170.44125734 273.1629224 169.95210892 269.54869347 169.8984375 265.9765625 C169.91003906 265.20441406 169.92164063 264.43226563 169.93359375 263.63671875 C169.98726124 259.45863379 169.98726124 259.45863379 168.31762695 255.75073242 C165.90732447 254.03902081 164.35667926 254.13263345 161.41796875 254.18359375 C160.08922729 254.19483276 160.08922729 254.19483276 158.73364258 254.20629883 C157.05177856 254.24726685 157.05177856 254.24726685 155.3359375 254.2890625 C149.98375 254.381875 149.98375 254.381875 144.5234375 254.4765625 Z " fill="#000000" transform="translate(265.4765625,60.5234375)"/>
<path d="M0 0 C0.84871304 -0.00170885 1.69742608 -0.0034177 2.57185769 -0.00517833 C5.42016263 -0.00847666 8.26823281 0.00253615 11.11651611 0.01345825 C13.156489 0.01402229 15.19646229 0.01370595 17.23643494 0.01257324 C22.77944516 0.01199845 28.32236916 0.02377332 33.86535931 0.03772116 C39.65628817 0.05020736 45.44721893 0.05139735 51.23815918 0.05377197 C62.20637014 0.05999295 73.17454133 0.07641213 84.14273477 0.09647095 C98.96247118 0.12298634 113.78221844 0.1337976 128.60197258 0.14547539 C151.954832 0.16429228 175.30760747 0.20413387 198.66046143 0.24050903 C198.66046143 33.57050903 198.66046143 66.90050903 198.66046143 101.24050903 C128.04046143 101.24050903 57.42046143 101.24050903 -15.33953857 101.24050903 C-15.33953857 7.24050903 -15.33953857 7.24050903 -12.33953857 2.24050903 C-8.73943898 -0.56275209 -4.3575561 -0.03198103 0 0 Z M12.66046143 34.24050903 C12.20917839 37.21451461 12.20917839 37.21451461 12.29718018 40.70925903 C12.29782471 42.00218872 12.29846924 43.29511841 12.2991333 44.62722778 C12.30743164 45.30189087 12.31572998 45.97655396 12.32427979 46.67166138 C12.34787282 48.73276854 12.34484168 50.79258244 12.3381958 52.85379028 C11.82910604 59.65030296 11.82910604 59.65030296 14.66046143 65.24050903 C17.54134066 65.55249442 17.54134066 65.55249442 20.91046143 65.50613403 C22.15827393 65.50871216 23.40608643 65.51129028 24.69171143 65.51394653 C26.00139893 65.50621216 27.31108643 65.49847778 28.66046143 65.49050903 C30.62499268 65.5021106 30.62499268 65.5021106 32.62921143 65.51394653 C34.50093018 65.51007935 34.50093018 65.51007935 36.41046143 65.50613403 C38.13522705 65.50275024 38.13522705 65.50275024 39.89483643 65.4992981 C42.80245974 65.5239458 42.80245974 65.5239458 44.66046143 63.24050903 C45.05802594 59.10442451 44.98952765 54.96298334 44.97613525 50.80935669 C44.97297309 48.74811048 44.99643845 46.68829664 45.02178955 44.62722778 C45.02243408 43.3342981 45.02307861 42.04136841 45.02374268 40.70925903 C45.02672363 39.51752075 45.02970459 38.32578247 45.03277588 37.09793091 C44.90991211 36.15498169 44.78704834 35.21203247 44.66046143 34.24050903 C41.206857 31.93810608 39.85546758 31.98359126 35.78546143 31.97488403 C34.0606958 31.97101685 34.0606958 31.97101685 32.30108643 31.96707153 C31.09968018 31.97480591 29.89827393 31.98254028 28.66046143 31.99050903 C27.45905518 31.98277466 26.25764893 31.97504028 25.01983643 31.96707153 C23.86999268 31.96964966 22.72014893 31.97222778 21.53546143 31.97488403 C20.4810083 31.97713989 19.42655518 31.97939575 18.34014893 31.98171997 C15.43565374 32.04938445 15.43565374 32.04938445 12.66046143 34.24050903 Z M75.66046143 34.24050903 C75.20917839 37.21451461 75.20917839 37.21451461 75.29718018 40.70925903 C75.29782471 42.00218872 75.29846924 43.29511841 75.2991333 44.62722778 C75.30743164 45.30189087 75.31572998 45.97655396 75.32427979 46.67166138 C75.34787282 48.73276854 75.34484168 50.79258244 75.3381958 52.85379028 C74.82910604 59.65030296 74.82910604 59.65030296 77.66046143 65.24050903 C82.28807258 65.72944247 86.94748826 65.61091597 91.59796143 65.61550903 C92.89927002 65.64000122 94.20057861 65.66449341 95.5413208 65.68972778 C96.78591064 65.69359497 98.03050049 65.69746216 99.31280518 65.70144653 C100.45741211 65.70966431 101.60201904 65.71788208 102.78131104 65.72634888 C105.70987639 65.49504114 105.70987639 65.49504114 107.5322876 63.56912231 C108.91391919 60.71735816 109.04819637 58.68767713 109.05889893 55.52175903 C109.06276611 54.42476685 109.0666333 53.32777466 109.07061768 52.19754028 C109.05901611 51.05671997 109.04741455 49.91589966 109.03546143 48.74050903 C109.04706299 47.59968872 109.05866455 46.45886841 109.07061768 45.28347778 C109.06481689 43.6379895 109.06481689 43.6379895 109.05889893 41.95925903 C109.05551514 40.958302 109.05213135 39.95734497 109.04864502 38.92605591 C108.58913872 35.7470815 108.05172889 34.39397089 105.66046143 32.24050903 C102.81251182 31.65554412 102.81251182 31.65554412 99.56671143 31.77957153 C98.37175049 31.78343872 97.17678955 31.78730591 95.94561768 31.79129028 C94.69651611 31.81578247 93.44741455 31.84027466 92.16046143 31.86550903 C90.91135986 31.8667981 89.6622583 31.86808716 88.37530518 31.86941528 C81.63768745 31.67426037 81.63768745 31.67426037 75.66046143 34.24050903 Z M139.80450439 33.384552 C138.14928083 36.06978664 138.27171284 38.1950517 138.26202393 41.33425903 C138.25815674 42.52921997 138.25428955 43.72418091 138.25030518 44.95535278 C138.26190674 46.20445435 138.2735083 47.45355591 138.28546143 48.74050903 C138.27385986 49.9896106 138.2622583 51.23871216 138.25030518 52.52566528 C138.25417236 53.72062622 138.25803955 54.91558716 138.26202393 56.14675903 C138.26540771 57.24310669 138.2687915 58.33945435 138.27227783 59.46902466 C138.46611633 62.2033184 138.46611633 62.2033184 139.80450439 64.09646606 C142.48973903 65.75168962 144.61500409 65.62925762 147.75421143 65.63894653 C149.54665283 65.64474731 149.54665283 65.64474731 151.37530518 65.65066528 C152.62440674 65.63906372 153.8735083 65.62746216 155.16046143 65.61550903 C156.40956299 65.6271106 157.65866455 65.63871216 158.94561768 65.65066528 C160.14057861 65.6467981 161.33553955 65.64293091 162.56671143 65.63894653 C163.66305908 65.63556274 164.75940674 65.63217896 165.88897705 65.62869263 C168.62327079 65.43485413 168.62327079 65.43485413 170.51641846 64.09646606 C172.17164202 61.41123143 172.04921001 59.28596637 172.05889893 56.14675903 C172.06276611 54.9517981 172.0666333 53.75683716 172.07061768 52.52566528 C172.05901611 51.27656372 172.04741455 50.02746216 172.03546143 48.74050903 C172.04706299 47.49140747 172.05866455 46.24230591 172.07061768 44.95535278 C172.06481689 43.16291138 172.06481689 43.16291138 172.05889893 41.33425903 C172.05551514 40.23791138 172.05213135 39.14156372 172.04864502 38.01199341 C171.85480652 35.27769966 171.85480652 35.27769966 170.51641846 33.384552 C167.83118382 31.72932844 165.70591876 31.85176044 162.56671143 31.84207153 C160.77427002 31.83627075 160.77427002 31.83627075 158.94561768 31.83035278 C157.69651611 31.84195435 156.44741455 31.85355591 155.16046143 31.86550903 C153.91135986 31.85390747 152.6622583 31.84230591 151.37530518 31.83035278 C150.18034424 31.83421997 148.9853833 31.83808716 147.75421143 31.84207153 C146.10968994 31.84714722 146.10968994 31.84714722 144.4319458 31.85232544 C141.69765206 32.04616394 141.69765206 32.04616394 139.80450439 33.384552 Z " fill="#000000" transform="translate(52.33953857421875,379.7594909667969)"/>
<path d="M0 0 C1.64044281 -0.01062721 1.64044281 -0.01062721 3.31402588 -0.02146912 C4.51412292 -0.0189917 5.71421997 -0.01651428 6.95068359 -0.01396179 C8.84605865 -0.02162819 8.84605865 -0.02162819 10.77972412 -0.02944946 C14.24660885 -0.04285022 17.71338464 -0.04341704 21.18029022 -0.04088616 C24.07308902 -0.03981735 26.96586568 -0.04469742 29.85865974 -0.04949158 C36.68166887 -0.06059011 43.50462293 -0.061022 50.32763672 -0.05497742 C57.37081114 -0.04893386 64.41378598 -0.0612574 71.45692635 -0.08254749 C77.50115802 -0.10014747 83.54532608 -0.10616746 89.58958244 -0.10290974 C93.20082907 -0.10109444 96.81193327 -0.10375759 100.42315674 -0.11762428 C104.44808982 -0.13250119 108.47261489 -0.12324666 112.49755859 -0.11161804 C113.69765564 -0.11926178 114.89775269 -0.12690552 116.13421631 -0.13478088 C117.77465912 -0.12425941 117.77465912 -0.12425941 119.44824219 -0.11352539 C120.40024506 -0.11369313 121.35224792 -0.11386087 122.33309937 -0.1140337 C124.72412109 0.26069641 124.72412109 0.26069641 127.72412109 3.26069641 C127.72412109 23.72069641 127.72412109 44.18069641 127.72412109 65.26069641 C82.84412109 65.26069641 37.96412109 65.26069641 -8.27587891 65.26069641 C-8.27587891 44.47069641 -8.27587891 23.68069641 -8.27587891 2.26069641 C-4.94065188 0.03721173 -3.8891067 0.00838635 0 0 Z " fill="#000000" transform="translate(308.27587890625,415.7393035888672)"/>
<path d="M0 0 C1.51000076 -0.00856522 1.51000076 -0.00856522 3.05050659 -0.01730347 C4.15912048 -0.01842133 5.26773438 -0.01953918 6.40994263 -0.02069092 C7.57423798 -0.02565582 8.73853333 -0.03062073 9.93811035 -0.03573608 C13.8038898 -0.05038545 17.66962822 -0.05716408 21.53543091 -0.06268311 C23.53701856 -0.06697991 25.53860621 -0.07127722 27.54019368 -0.07565761 C33.1181783 -0.08747342 38.69615295 -0.09500768 44.27414882 -0.09845281 C51.49049586 -0.10293417 58.70665354 -0.12048506 65.922943 -0.1494534 C71.49922445 -0.17106205 77.0754526 -0.18115664 82.65177548 -0.18249393 C85.98308249 -0.18354254 89.31417078 -0.19090347 92.64544296 -0.20731354 C96.3613608 -0.22431265 100.0768145 -0.22250861 103.79275513 -0.21600342 C105.44960327 -0.22982559 105.44960327 -0.22982559 107.1399231 -0.243927 C108.15222992 -0.23835785 109.16453674 -0.2327887 110.20751953 -0.22705078 C111.08615599 -0.22851734 111.96479244 -0.2299839 112.87005424 -0.2314949 C115.23074341 0.14044189 115.23074341 0.14044189 119.23074341 3.14044189 C119.23074341 22.61044189 119.23074341 42.08044189 119.23074341 62.14044189 C76.99074341 62.14044189 34.75074341 62.14044189 -8.76925659 62.14044189 C-8.76925659 5.14044189 -8.76925659 5.14044189 -6.76925659 1.14044189 C-4.32286987 -0.08275147 -2.7355557 0.0092693 0 0 Z " fill="#000000" transform="translate(88.76925659179688,308.85955810546875)"/>
<path d="M0 0 C14.19 0 28.38 0 43 0 C43.91368594 19.22767364 44.82659047 38.45538386 45.73806 57.68316269 C46.1612862 66.61073966 46.58486648 75.53829957 47.00927734 84.46582031 C47.37914806 92.246103 47.74835745 100.02641674 48.11676931 107.80676866 C48.31190286 111.92723012 48.50736986 116.04767515 48.70362854 120.16808319 C48.88829822 124.04540233 49.07208439 127.92276233 49.2551899 131.80015564 C49.3225856 133.22399187 49.39030545 134.64781281 49.45837212 136.07161713 C49.55120458 138.0144798 49.64276175 139.95740329 49.73425293 141.90032959 C49.78587334 142.98804531 49.83749374 144.07576103 49.89067841 145.19643784 C49.97905495 147.46286223 50 149.7318532 50 152 C31.19 152 12.38 152 -7 152 C-7 142.06600101 -6.93532447 132.24988215 -6.46508789 122.34521484 C-6.40817276 121.084552 -6.35125763 119.82388916 -6.2926178 118.52502441 C-6.13892791 115.12468868 -5.98070718 111.72457898 -5.82135701 108.32450438 C-5.65409126 104.74269453 -5.49048848 101.16071687 -5.32627869 97.57876587 C-5.05064255 91.57924166 -4.77194731 85.57986541 -4.49145508 79.58056641 C-4.16781009 72.65731325 -3.84946295 65.73383114 -3.533804 58.81020963 C-3.26129591 52.83604534 -2.98596801 46.86201584 -2.70828623 40.88808978 C-2.54300984 37.33239448 -2.37868464 33.77666241 -2.21690559 30.22080612 C-2.03684635 26.26728679 -1.85087073 22.31405781 -1.66430664 18.36083984 C-1.61179749 17.19195221 -1.55928833 16.02306458 -1.50518799 14.8187561 C-1.4533284 13.73979065 -1.40146881 12.6608252 -1.34803772 11.54916382 C-1.30471345 10.61681097 -1.26138918 9.68445812 -1.21675205 8.72385216 C-0.98384661 5.79700559 -0.48269166 2.89614995 0 0 Z " fill="#000000" transform="translate(123,148)"/>
<path d="M0 0 C6.60049827 4.38666655 10.66605604 8.91868261 13.88671875 16.25390625 C14.19609375 17.92453125 14.19609375 17.92453125 14.51171875 19.62890625 C15.61786895 22.46158709 15.61786895 22.46158709 18.2734375 23.109375 C20.2407432 23.58478532 22.21231063 24.04286208 24.1875 24.484375 C28.81181051 25.80273849 30.82100156 28.74732502 33.49043274 32.52104187 C35.16219604 35.79308094 35.24931346 37.94231942 35.22729492 41.60473633 C35.22706833 42.86566605 35.22684174 44.12659576 35.22660828 45.42573547 C35.21129077 46.79163981 35.19564282 48.15754047 35.1796875 49.5234375 C35.17408787 50.92876227 35.1698195 52.33409292 35.16682434 53.73942566 C35.1554043 57.4269953 35.12596217 61.11420694 35.0927124 64.80163574 C35.06194987 68.56887889 35.04814115 72.33618196 35.03320312 76.10351562 C35.00268323 83.4872947 34.94395762 90.87009241 34.88671875 98.25390625 C25.64671875 98.25390625 16.40671875 98.25390625 6.88671875 98.25390625 C6.8609375 95.7015625 6.83515625 93.14921875 6.80859375 90.51953125 C6.77016571 88.04383377 6.72500814 85.56834404 6.67919922 83.09277344 C6.65099808 81.37412456 6.62977921 79.6553462 6.61572266 77.93652344 C6.59428042 75.46351878 6.54762719 72.9920695 6.49609375 70.51953125 C6.49486511 69.75272034 6.49363647 68.98590942 6.49237061 68.19586182 C6.39514757 64.64369552 6.18900962 62.64168417 3.97363281 59.79980469 C0.64547837 57.33444742 -1.21900344 57.12990928 -5.32226562 57.12792969 C-6.95536682 57.12221954 -6.95536682 57.12221954 -8.62145996 57.11639404 C-9.80469849 57.11536682 -10.98793701 57.1143396 -12.20703125 57.11328125 C-14.70704029 57.09494327 -17.20704053 57.07537206 -19.70703125 57.0546875 C-23.65249341 57.02579199 -27.59739414 57.00390822 -31.54296875 57.00341797 C-35.3481642 57.00006832 -39.15206229 56.96541243 -42.95703125 56.92578125 C-44.70759827 56.9363858 -44.70759827 56.9363858 -46.49353027 56.94720459 C-54.00005458 56.83658698 -59.88880713 55.63348693 -66.11328125 51.25390625 C-71.81957815 45.25565254 -72.48022047 39.52052414 -72.3828125 31.55078125 C-71.9235237 25.93281389 -70.33076692 22.28846051 -66.171875 18.47265625 C-62.13875424 15.32340542 -59.1471962 13.23195753 -53.85546875 13.2890625 C-46.16861826 13.49467651 -46.16861826 13.49467651 -39.4765625 10.140625 C-38.02012522 8.37564266 -36.5916219 6.58725213 -35.19140625 4.77734375 C-27.19155292 -4.93676386 -10.68779805 -5.84266294 0 0 Z " fill="#000000" transform="translate(123.11328125,13.74609375)"/>
<path d="M0 0 C1.14551762 0.00265421 1.14551762 0.00265421 2.31417701 0.00536203 C3.12177428 0.0033094 3.92937155 0.00125677 4.76144147 -0.00085807 C7.50268833 -0.00657074 10.24388562 -0.00506561 12.98513743 -0.0036521 C14.95623027 -0.00623329 16.92732259 -0.00924575 18.89841416 -0.0126555 C24.34224848 -0.02075757 29.78606964 -0.02251684 35.22990927 -0.02325296 C41.09024734 -0.02509795 46.95057849 -0.03264239 52.81091258 -0.03938818 C66.30627115 -0.05370425 79.80162792 -0.05950075 93.29699267 -0.06408012 C99.96107287 -0.06641373 106.62515226 -0.07001609 113.2892318 -0.0737755 C136.08632098 -0.08661219 158.88340967 -0.09733182 181.68050238 -0.1007781 C183.1123003 -0.10099974 184.54409821 -0.10122152 185.97589612 -0.10144345 C187.41121544 -0.1016641 188.84653475 -0.10188458 190.28185406 -0.1021049 C193.16150992 -0.10254746 196.04116578 -0.10299458 198.92082164 -0.10344458 C199.63481204 -0.10355397 200.34880244 -0.10366336 201.08442892 -0.10377606 C224.24764563 -0.10740857 247.41083109 -0.12333529 270.57403583 -0.14663494 C295.04481009 -0.17120501 319.51556647 -0.18494961 343.98635343 -0.18614602 C346.6701681 -0.18631749 349.35398276 -0.18653292 352.03779742 -0.18678045 C353.0290943 -0.18686411 353.0290943 -0.18686411 354.04041737 -0.18694945 C364.03598239 -0.18803081 374.03151322 -0.19741183 384.02706668 -0.21096563 C395.38915395 -0.22631761 406.75118764 -0.2315162 418.1132833 -0.22322753 C423.91596692 -0.21930368 429.7185425 -0.22033458 435.52121302 -0.23428488 C440.82527027 -0.24692047 446.12913713 -0.24591838 451.43319372 -0.23369417 C453.35983718 -0.23171907 455.28649366 -0.23489794 457.21311875 -0.24353853 C459.81671838 -0.25448298 462.4196283 -0.24725056 465.02320716 -0.235147 C465.7845444 -0.24274219 466.54588165 -0.25033739 467.33028972 -0.25816274 C469.41941634 -0.23695636 469.41941634 -0.23695636 472.73161265 0.1367898 C474.73161265 3.1367898 474.73161265 3.1367898 474.41911265 6.2617898 C473.73161265 9.1367898 473.73161265 9.1367898 472.73161265 10.1367898 C470.1952667 10.2383842 467.68602014 10.27409582 465.1490483 10.26821756 C464.34145103 10.2702702 463.53385375 10.27232283 462.70178384 10.27443767 C459.96053698 10.28015034 457.21933969 10.27864521 454.47808787 10.27723169 C452.50699503 10.27981288 450.53590272 10.28282535 448.56481114 10.28623509 C443.12097682 10.29433717 437.67715567 10.29609644 432.23331603 10.29683256 C426.37297797 10.29867754 420.51264682 10.30622199 414.65231273 10.31296778 C401.15695416 10.32728384 387.66159739 10.33308035 374.16623264 10.33765972 C367.50215244 10.33999333 360.83807305 10.34359569 354.17399351 10.3473551 C331.37690433 10.36019179 308.57981564 10.37091142 285.78272292 10.3743577 C284.35092501 10.37457934 282.91912709 10.37480112 281.48732918 10.37502305 C280.05200987 10.37524369 278.61669055 10.37546418 277.18137124 10.3756845 C274.30171538 10.37612706 271.42205953 10.37657417 268.54240367 10.37702417 C267.82841327 10.37713356 267.11442286 10.37724296 266.37879639 10.37735566 C243.21557967 10.38098816 220.05239422 10.39691489 196.88918948 10.42021454 C172.41841522 10.44478461 147.94765884 10.4585292 123.47687188 10.45972562 C120.79305721 10.45989708 118.10924255 10.46011251 115.42542788 10.46036005 C114.7645633 10.46041582 114.10369872 10.46047159 113.42280793 10.46052905 C103.42724292 10.46161041 93.43171209 10.47099143 83.43615863 10.48454523 C72.07407136 10.49989721 60.71203766 10.5050958 49.34994201 10.49680713 C43.54725838 10.49288328 37.74468281 10.49391418 31.94201228 10.50786448 C26.63795504 10.52050007 21.33408817 10.51949797 16.03003158 10.50727376 C14.10338812 10.50529867 12.17673165 10.50847754 10.25010655 10.51711813 C7.64650693 10.52806257 5.04359701 10.52083016 2.44001815 10.5087266 C1.29801228 10.52011939 1.29801228 10.52011939 0.13293558 10.53174233 C-1.95619103 10.51053596 -1.95619103 10.51053596 -5.26838735 10.1367898 C-7.26838735 7.1367898 -7.26838735 7.1367898 -6.95588735 4.0117898 C-5.83864204 -0.66032695 -4.52943979 0.01988715 0 0 Z " fill="#000000" transform="translate(22.268387347459793,490.8632102012634)"/>
<path d="M0 0 C1.69184166 -0.01407143 1.69184166 -0.01407143 3.41786194 -0.02842712 C5.2305381 -0.01157616 5.2305381 -0.01157616 7.07983398 0.00561523 C8.32844711 0.00416 9.57706024 0.00270477 10.86351013 0.00120544 C13.50087782 0.0028643 16.13679859 0.01233171 18.77392578 0.03515625 C22.14900668 0.06357048 25.52318351 0.06079255 28.89833164 0.04806614 C32.12555719 0.03942951 35.35263673 0.05455662 38.57983398 0.06811523 C40.39554649 0.06371178 40.39554649 0.06371178 42.24794006 0.05921936 C43.93505348 0.07824562 43.93505348 0.07824562 45.65625 0.09765625 C46.64488541 0.10305923 47.63352081 0.10846222 48.65211487 0.11402893 C51.68194985 0.56384351 53.05657557 1.41093057 55.26342773 3.50170898 C56.7136029 7.73336768 56.74507741 11.45083695 54.88842773 15.50170898 C53.26342773 17.50170898 53.26342773 17.50170898 52.26342773 18.50170898 C50.40797468 18.61129451 48.54834468 18.65080827 46.68969727 18.6628418 C45.49821075 18.67244934 44.30672424 18.68205688 43.07913208 18.69195557 C41.78127777 18.69620544 40.48342346 18.70045532 39.14624023 18.70483398 C37.80964148 18.71058343 36.47304277 18.71634119 35.13644409 18.72210693 C32.330298 18.73262583 29.52418063 18.7384625 26.71801758 18.74194336 C23.12087766 18.7474268 19.52411654 18.7714473 15.92709541 18.79991531 C13.16473277 18.81853385 10.40246145 18.82374688 7.64004135 18.82527924 C5.66852189 18.82978308 3.69705129 18.84843511 1.72561646 18.86724854 C-0.07106979 18.86274689 -0.07106979 18.86274689 -1.90405273 18.8581543 C-3.48837601 18.86362274 -3.48837601 18.86362274 -5.10470581 18.86920166 C-7.73657227 18.50170898 -7.73657227 18.50170898 -9.57180786 17.13934326 C-11.25081911 14.77868873 -11.20541272 12.93478218 -11.23657227 10.06420898 C-11.26750977 9.11674805 -11.29844727 8.16928711 -11.33032227 7.19311523 C-10.06012703 1.43545395 -5.37771681 0.00090315 0 0 Z " fill="#000000" transform="translate(121.736572265625,120.498291015625)"/>
</svg>
