<?xml version="1.0" encoding="UTF-8"?>
<svg width="346" height="324" viewBox="0 0 346 324" fill="none" xmlns="http://www.w3.org/2000/svg">
<path fill-rule="evenodd" clip-rule="evenodd" d="M296.585 113.918H250.819L294.452 88.7267C317.192 75.5977 324.984 46.5201 311.855 23.7801C301.582 5.98662 281.544 -2.6543 262.418 0.718174H47.5442C21.2863 0.718174 0 22.0045 0 48.2624C0 74.5204 21.2862 95.8066 47.5442 95.8066H92.0127L54.7604 117.314C52.1051 118.847 49.6535 120.598 47.4153 122.53C35.1707 131.131 27.168 145.362 27.168 161.463C27.168 187.721 48.4542 209.007 74.7121 209.007H127.022L81.9245 235.044C59.1845 248.173 51.3931 277.25 64.5221 299.99C77.6511 322.73 106.729 330.522 129.469 317.393L321.616 206.456C342.066 194.65 350.427 169.945 342.355 148.551C336.729 128.567 318.368 113.918 296.585 113.918Z" fill="#92AA83"/>
</svg>


