<?xml version="1.0" encoding="UTF-8"?>
<svg id="Layer_1" data-name="Layer 1" xmlns="http://www.w3.org/2000/svg" viewBox="0 0 346 324">
  <defs>
    <style>
      .cls-1 {
        fill: #92aa83;
        fill-rule: evenodd;
        opacity: .1;
        stroke-width: 0px;
      }
    </style>
  </defs>
  <path class="cls-1" d="M296.58,113.92h-45.77l43.63-25.19c22.74-13.13,30.53-42.21,17.4-64.95-10.27-17.79-28.76-23.06-49.44-23.06H47.54C21.29.72,0,22,0,48.26s21.29,47.54,47.54,47.54h44.47l-37.25,21.51c-2.66,1.53-5.11,3.28-7.35,5.22-12.24,8.6-20.25,22.83-20.25,38.93,0,26.26,21.29,47.54,47.54,47.54h52.31l-45.1,26.04c-22.74,13.13-30.53,42.21-17.4,64.95,13.13,22.74,42.21,30.53,64.95,17.4l192.15-110.94c20.45-11.81,28.81-36.51,20.74-57.9-5.63-19.98-23.99-34.63-45.77-34.63Z"/>
</svg>